<svg width="68" height="68" viewBox="0 0 68 68" fill="none" xmlns="http://www.w3.org/2000/svg">
<path d="M20.1301 32.7302L31.1459 43.7461L50.5071 24.3849" stroke="#1386AD" stroke-width="4"/>
<path d="M34.1592 0.851317C52.5031 0.851316 67.3738 15.722 67.3738 34.0659C67.3738 52.4098 52.5031 67.2805 34.1592 67.2805C15.8153 67.2805 0.944579 52.4098 0.944579 34.0659C0.944578 15.722 15.8153 0.851318 34.1592 0.851317ZM34.1592 58.3126C47.5502 58.3126 58.4058 47.457 58.4058 34.0659C58.4058 20.6749 47.5502 9.81926 34.1592 9.81926C20.7681 9.81926 9.91252 20.6749 9.91252 34.0659C9.91252 47.457 20.7681 58.3126 34.1592 58.3126Z" fill="#D9D9D9"/>
<path d="M34.1592 0.851317C39.9306 0.851317 45.6024 2.35517 50.6156 5.21467C55.6289 8.07416 59.8105 12.1906 62.7484 17.1583C65.6863 22.126 67.279 27.7735 67.3697 33.5442C67.4603 39.3149 66.0458 45.0096 63.2654 50.0672L55.4067 45.7468C57.4364 42.0548 58.469 37.8977 58.4028 33.6851C58.3367 29.4725 57.174 25.3498 55.0293 21.7234C52.8846 18.0969 49.8321 15.0919 46.1724 13.0045C42.5127 10.9171 38.3723 9.81926 34.1592 9.81926L34.1592 0.851317Z" fill="#1386AD"/>
</svg>
